<svg id="Capa_1" data-name="Capa 1" xmlns="http://www.w3.org/2000/svg" viewBox="0 0 822.06 200.63"><defs><style>.cls-1,.cls-3{fill:#6d5539;}.cls-2{fill:#ffb03a;}.cls-3{font-size:154.1px;font-family:GillSansMT, Gill Sans MT;letter-spacing:-0.06em;}.cls-4{letter-spacing:0em;}</style></defs><title>logotipo-vertical-1</title><path class="cls-1" d="M82.86,220.34a99.08,99.08,0,1,0,99.08,99.07A99.07,99.07,0,0,0,82.86,220.34Zm0,193a94,94,0,1,1,94-94A94,94,0,0,1,82.86,413.39Z" transform="translate(16.22 -217.86)"/><path class="cls-2" d="M81.17,231.53A88.49,88.49,0,0,0-3.91,295.67c22.58-41.19,68.67-39.75,68.67-39.75,7,1.42.22,3.4.22,3.4-26.14,8.24-31,36.61-31,36.61,0,2.66,1.42.68,1.42.68,17.17-22.85,36.1-17.4,36.1-17.4,3.85,1-.09,3.5-.09,3.5-13,10-12,20.39-12,20.39.74,2.35,1.87.35,1.87.35a25.46,25.46,0,0,1,15.38-10.22c4.9-.78,1.61,3.16,1.61,3.16s-4.4,6.87-5.21,10.47a3.78,3.78,0,0,0,2.75,4.54A24.55,24.55,0,0,1,85.9,328.25c1.42,11.37,13.16,14.4,13.16,14.4L149,355.57c6.53,2.37,0,3.17,0,3.17l-51.32,9.19S70,371.88,69,387.08,94.57,407.2,94.57,407.2a4.56,4.56,0,0,0,.86.1A88.46,88.46,0,0,0,81.17,231.53Z" transform="translate(16.22 -217.86)"/><circle class="cls-2" cx="78.24" cy="113.92" r="7.03"/><text class="cls-3" transform="translate(229.36 154.66)">R<tspan class="cls-4" x="83.82" y="0">OMLEX</tspan></text><rect class="cls-2" x="634.6" y="229" width="41.07" height="23.13" transform="translate(373.03 -608.23) rotate(44.53)"/><rect class="cls-2" x="647.43" y="229" width="41.07" height="23.13" transform="translate(1326.61 -279.52) rotate(135)"/><rect class="cls-2" x="234.65" y="161.98" width="582.11" height="6.13"/></svg>