<svg id="Capa_1" data-name="Capa 1" xmlns="http://www.w3.org/2000/svg" viewBox="0 0 366.77 366.77"><defs><style>.cls-1,.cls-3,.cls-5{fill:#6d5539;}.cls-2{fill:#ffb03a;}.cls-3{font-size:81.7px;font-family:GillSansMT, Gill Sans MT;}.cls-4{letter-spacing:-0.06em;}.cls-5{font-size:21.25px;font-family:Champagne&Limousines, "Champagne & Limousines";}.cls-6{letter-spacing:-0.02em;}.cls-7{letter-spacing:-0.02em;}.cls-8{letter-spacing:-0.02em;}</style></defs><title>logo_romlex</title><path class="cls-1" d="M183.39,29A99.08,99.08,0,1,0,282.46,128,99.08,99.08,0,0,0,183.39,29Zm0,193.05a94,94,0,1,1,94-94A94,94,0,0,1,183.39,222Z"/><path class="cls-2" d="M181.69,40.14a88.49,88.49,0,0,0-85.07,64.15c22.57-41.19,68.67-39.76,68.67-39.76,7,1.42.21,3.41.21,3.41-26.13,8.23-31,36.6-31,36.6,0,2.67,1.42.68,1.42.68,17.16-22.84,36.1-17.4,36.1-17.4,3.85,1-.1,3.5-.1,3.5-13,10-12,20.4-12,20.4.75,2.34,1.87.34,1.87.34a25.47,25.47,0,0,1,15.39-10.22c4.9-.78,1.61,3.16,1.61,3.16s-4.4,6.87-5.21,10.47A3.77,3.77,0,0,0,176.3,120a24.55,24.55,0,0,1,10.13,16.86c1.42,11.36,13.16,14.39,13.16,14.39l49.9,12.92c6.53,2.37,0,3.17,0,3.17l-51.32,9.19s-27.7,4-28.69,19.15,25.61,20.12,25.61,20.12a4.72,4.72,0,0,0,.86.1A88.46,88.46,0,0,0,181.69,40.14Z"/><circle class="cls-2" cx="162.55" cy="140.4" r="7.03"/><text class="cls-3" transform="translate(26.26 303.85)"><tspan class="cls-4">R</tspan><tspan x="44.44" y="0">OMLEX</tspan></text><rect class="cls-2" x="249.72" y="227.75" width="21.77" height="12.27" transform="translate(238.85 -115.61) rotate(44.53)"/><rect class="cls-2" x="256.52" y="227.75" width="21.77" height="12.27" transform="translate(621.88 210.18) rotate(135)"/><rect class="cls-2" x="29.07" y="307.73" width="308.64" height="3.25"/><text class="cls-5" transform="translate(29.64 333.74)"><tspan class="cls-6">F</tspan><tspan x="7.66" y="0">abricación de </tspan><tspan class="cls-7" x="127.59" y="0">P</tspan><tspan x="137.17" y="0">roductos de Mader</tspan><tspan class="cls-8" x="293.61" y="0">a</tspan><tspan x="304.88" y="0">.</tspan></text></svg>