<svg id="Capa_1" data-name="Capa 1" xmlns="http://www.w3.org/2000/svg" viewBox="0 0 198.16 198.16"><defs><style>.cls-1{fill:#6d5539;}.cls-2{fill:#ffb03a;}</style></defs><title>logo_romlex-mini</title><path class="cls-1" d="M82.86,220.34a99.08,99.08,0,1,0,99.08,99.07A99.07,99.07,0,0,0,82.86,220.34Zm0,193a94,94,0,1,1,94-94A94,94,0,0,1,82.86,413.39Z" transform="translate(16.22 -220.34)"/><path class="cls-2" d="M81.17,231.53A88.49,88.49,0,0,0-3.91,295.67c22.58-41.19,68.67-39.75,68.67-39.75,7,1.42.22,3.4.22,3.4-26.14,8.24-31,36.61-31,36.61,0,2.66,1.42.68,1.42.68,17.17-22.85,36.1-17.4,36.1-17.4,3.85,1-.09,3.5-.09,3.5-13,10-12,20.39-12,20.39.74,2.35,1.87.35,1.87.35a25.46,25.46,0,0,1,15.38-10.22c4.9-.78,1.61,3.16,1.61,3.16s-4.4,6.87-5.21,10.47a3.78,3.78,0,0,0,2.75,4.54A24.55,24.55,0,0,1,85.9,328.25c1.42,11.37,13.16,14.4,13.16,14.4L149,355.57c6.53,2.37,0,3.17,0,3.17l-51.32,9.19S70,371.88,69,387.08,94.57,407.2,94.57,407.2a4.56,4.56,0,0,0,.86.1A88.46,88.46,0,0,0,81.17,231.53Z" transform="translate(16.22 -220.34)"/><circle class="cls-2" cx="78.24" cy="111.45" r="7.03"/></svg>