<?xml version="1.0" standalone="no"?>
<!DOCTYPE svg PUBLIC "-//W3C//DTD SVG 20010904//EN"
 "http://www.w3.org/TR/2001/REC-SVG-20010904/DTD/svg10.dtd">
<svg version="1.0" xmlns="http://www.w3.org/2000/svg"
 width="7742.000000pt" height="2352.000000pt" viewBox="0 0 7742.000000 2352.000000"
 preserveAspectRatio="xMidYMid meet">
<metadata>
Created by potrace 1.15, written by Peter Selinger 2001-2017
</metadata>
<g transform="translate(0.000000,2352.000000) scale(0.100000,-0.100000)"
fill="#000000" stroke="none">
<path d="M10926 23510 c-1604 -74 -3112 -468 -4536 -1186 -2468 -1243 -4441
-3395 -5505 -6003 -516 -1265 -806 -2588 -876 -3990 -15 -310 -7 -1132 15
-1421 147 -1939 694 -3691 1659 -5310 1024 -1717 2478 -3150 4187 -4127 1287
-736 2685 -1203 4150 -1387 428 -54 740 -75 1220 -83 709 -11 1329 35 2026
152 2090 350 4026 1291 5650 2746 205 183 670 648 854 854 941 1050 1672 2226
2191 3523 763 1909 1023 4002 753 6072 -424 3259 -2178 6202 -4819 8086 -1396
997 -2996 1660 -4665 1933 -388 64 -726 102 -1160 131 -213 14 -914 20 -1144
10z m1014 -620 c558 -31 1070 -96 1595 -204 2548 -525 4837 -1991 6432 -4121
1750 -2338 2525 -5270 2167 -8205 -362 -2972 -1880 -5674 -4210 -7491 -313
-245 -745 -542 -1069 -736 -1412 -847 -2964 -1349 -4585 -1482 -403 -34 -1034
-43 -1420 -21 -2312 130 -4452 976 -6244 2469 -537 447 -1083 1003 -1527 1556
-1839 2286 -2709 5213 -2434 8185 276 2967 1712 5709 3980 7595 645 536 1321
979 2065 1351 1303 653 2699 1023 4160 1103 216 12 879 12 1090 1z"/>
<path d="M36685 17144 c-27 -2 -124 -11 -215 -19 -841 -77 -1605 -336 -2270
-770 -429 -279 -841 -655 -1165 -1060 -630 -788 -975 -1700 -1055 -2785 -13
-176 -13 -697 0 -875 51 -693 213 -1303 497 -1870 101 -202 147 -281 278 -480
188 -284 374 -512 620 -760 769 -775 1712 -1245 2795 -1394 294 -40 404 -46
845 -46 449 0 576 8 905 56 867 125 1661 447 2324 944 385 288 768 670 1041
1040 543 734 843 1570 915 2550 15 209 12 684 -5 902 -90 1118 -484 2062
-1196 2868 -293 332 -673 662 -1034 897 -676 441 -1393 686 -2295 784 -138 15
-855 28 -985 18z m875 -1359 c478 -54 867 -169 1265 -374 358 -184 646 -401
950 -713 708 -726 1051 -1630 1021 -2688 -25 -908 -302 -1670 -841 -2313 -570
-680 -1312 -1113 -2153 -1257 -214 -37 -375 -51 -622 -57 -538 -12 -1017 62
-1469 228 -167 61 -478 214 -625 307 -604 381 -1103 951 -1381 1575 -148 333
-237 664 -292 1082 -26 200 -26 795 0 1005 59 474 168 859 352 1235 327 671
896 1250 1562 1588 268 136 490 217 791 291 222 55 422 83 777 110 104 8 535
-4 665 -19z"/>
<path d="M24830 12100 l0 -4910 690 0 690 0 0 2136 0 2137 343 -6 c456 -7 678
-37 871 -117 296 -124 751 -545 1172 -1085 258 -331 335 -453 969 -1530 128
-218 288 -473 389 -620 94 -137 268 -400 385 -582 l214 -333 819 0 819 0 -23
33 c-12 17 -139 194 -281 392 -391 543 -529 756 -1022 1575 -503 835 -829
1337 -1098 1690 -272 356 -614 702 -902 911 -47 34 -82 65 -78 69 4 4 33 17
63 30 304 126 658 368 868 596 436 470 652 1063 652 1786 0 385 -55 727 -165
1024 -276 746 -918 1311 -1770 1559 -218 63 -390 96 -710 137 -62 8 -521 12
-1492 15 l-1403 4 0 -4911z m2405 3690 c597 -47 898 -131 1157 -322 520 -384
705 -1155 437 -1823 -127 -317 -368 -581 -664 -728 -287 -142 -729 -197 -1582
-197 l-373 0 0 1547 0 1546 448 -6 c246 -4 506 -11 577 -17z"/>
<path d="M43850 12100 l0 -4910 690 0 690 0 2 3806 3 3805 1470 -1883 1471
-1883 134 0 134 0 1455 1886 1456 1886 3 -3808 2 -3809 690 0 690 0 0 4910 0
4910 -644 0 -644 0 -1559 -1997 c-857 -1098 -1563 -2003 -1569 -2011 -8 -11
-345 412 -1589 1997 l-1579 2011 -653 0 -653 0 0 -4910z"/>
<path d="M54780 12100 l0 -4910 2830 0 2830 0 0 645 0 645 -2145 0 -2145 0 0
4265 0 4265 -685 0 -685 0 0 -4910z"/>
<path d="M61620 12105 l0 -4905 2770 0 2770 0 0 630 0 630 -2080 0 -2080 0 0
1520 0 1520 1950 0 1950 0 0 635 0 635 -1950 0 -1950 0 0 1490 0 1490 2015 0
2015 0 0 630 0 630 -2705 0 -2705 0 0 -4905z"/>
<path d="M67882 17000 c2 -5 855 -1069 1896 -2364 1041 -1295 1893 -2358 1893
-2361 1 -4 -916 -1143 -2037 -2533 -1120 -1390 -2042 -2533 -2047 -2539 -8
-10 160 -13 831 -13 l841 0 1627 2023 c895 1112 1630 2025 1634 2030 3 4 735
-906 1625 -2023 l1619 -2030 828 0 c455 0 828 2 828 5 0 3 -916 1147 -2035
2542 -1295 1615 -2031 2540 -2026 2547 107 134 3778 4696 3789 4709 14 16 -25
17 -819 17 l-834 0 -1320 -1667 c-726 -916 -1392 -1757 -1481 -1869 l-161
-203 -1489 1869 -1489 1869 -838 0 c-544 1 -837 -2 -835 -9z"/>
<path d="M24520 3225 l0 -1295 75 0 75 0 0 610 0 610 480 0 480 0 0 75 0 75
-480 0 -480 0 0 530 0 530 480 0 480 0 0 80 0 80 -555 0 -555 0 0 -1295z"/>
<path d="M27800 3225 l0 -1295 75 0 75 0 0 149 0 149 73 -75 c88 -91 171 -152
270 -198 240 -111 556 -94 778 41 184 112 336 305 398 506 63 207 42 487 -51
671 -119 236 -320 403 -563 468 -111 29 -317 30 -426 1 -163 -43 -284 -117
-407 -246 l-72 -76 0 600 0 600 -75 0 -75 0 0 -1295z m1058 242 c109 -38 177
-82 272 -177 165 -165 240 -378 211 -604 -24 -182 -80 -294 -216 -432 -152
-153 -303 -211 -519 -202 -190 9 -313 65 -456 208 -63 63 -96 106 -127 165
-65 126 -73 165 -73 352 0 139 3 173 21 226 79 236 266 414 501 477 106 29
284 23 386 -13z"/>
<path d="M43080 3918 l0 -602 -71 77 c-165 180 -375 270 -624 270 -177 0 -320
-40 -455 -128 -247 -160 -393 -413 -407 -706 -15 -296 78 -529 290 -725 181
-167 423 -246 669 -217 205 25 356 99 506 249 l92 94 0 -150 0 -150 75 0 75 0
0 1295 0 1295 -75 0 -75 0 0 -602z m-545 -433 c39 -8 108 -33 155 -56 70 -35
102 -59 180 -138 104 -104 151 -180 189 -305 17 -56 21 -94 21 -212 0 -125 -3
-153 -25 -221 -78 -243 -283 -436 -521 -488 -56 -13 -104 -16 -183 -13 -184 8
-324 71 -457 203 -136 136 -203 290 -211 485 -6 142 17 254 77 369 152 293
460 442 775 376z"/>
<path d="M46320 3225 l0 -1295 80 0 80 0 0 445 0 445 229 0 c260 0 350 10 461
49 107 38 178 82 272 170 131 123 205 242 249 406 31 112 32 344 1 456 -80
295 -325 536 -614 604 -49 11 -140 15 -410 15 l-348 0 0 -1295z m730 1119
c195 -45 385 -211 467 -409 73 -174 61 -419 -29 -586 -68 -129 -186 -243 -313
-304 -112 -54 -191 -65 -460 -65 l-235 0 0 690 0 690 253 0 c190 0 268 -4 317
-16z"/>
<path d="M52150 3919 l0 -602 -61 67 c-152 165 -319 252 -535 276 -333 37
-636 -109 -825 -398 -187 -286 -184 -700 8 -989 118 -177 294 -307 498 -364
104 -30 324 -33 424 -6 168 45 266 102 393 229 l98 96 0 -149 0 -149 75 0 75
0 0 1295 0 1295 -75 0 -75 0 0 -601z m-526 -439 c190 -48 360 -186 455 -369
62 -121 74 -179 69 -366 -4 -148 -6 -165 -32 -230 -117 -287 -370 -465 -661
-465 -268 0 -512 156 -634 405 -51 105 -65 176 -66 320 0 148 18 224 83 350
51 98 200 247 299 298 147 77 328 98 487 57z"/>
<path d="M62340 3919 l0 -602 -42 53 c-98 119 -272 229 -433 271 -112 29 -318
30 -426 1 -164 -44 -283 -116 -411 -250 -93 -98 -158 -206 -200 -332 -28 -85
-31 -111 -36 -246 -5 -174 10 -271 60 -391 101 -244 329 -448 574 -515 112
-30 336 -30 445 -1 157 44 322 147 420 265 l49 59 0 -150 0 -151 80 0 80 0 0
1295 0 1295 -80 0 -80 0 0 -601z m-472 -452 c109 -38 177 -82 272 -177 91 -90
152 -190 184 -299 25 -85 23 -369 -3 -444 -40 -117 -92 -199 -181 -287 -94
-94 -161 -138 -272 -178 -67 -24 -86 -27 -218 -27 -132 0 -151 3 -218 27 -100
36 -173 81 -254 157 -205 191 -282 476 -202 751 62 214 256 414 464 479 94 29
103 30 235 26 97 -2 134 -8 193 -28z"/>
<path d="M65560 3225 l0 -1295 75 0 75 0 2 1202 3 1202 470 -634 c259 -348
475 -640 481 -648 9 -12 107 115 490 632 l479 647 3 -1200 2 -1201 75 0 75 0
0 1295 0 1295 -107 0 -108 -1 -445 -604 c-245 -332 -448 -604 -452 -604 -3 -1
-208 271 -455 604 l-448 605 -107 0 -108 0 0 -1295z"/>
<path d="M71630 3920 l0 -601 -82 85 c-177 180 -365 259 -613 259 -177 0 -319
-39 -455 -127 -181 -118 -313 -294 -376 -501 -25 -82 -28 -105 -28 -255 -1
-192 11 -252 79 -395 161 -342 512 -541 877 -498 205 25 356 99 506 249 l92
94 0 -150 0 -150 75 0 75 0 0 1295 0 1295 -75 0 -75 0 0 -600z m-545 -435 c39
-8 108 -33 155 -56 70 -35 102 -60 181 -138 79 -79 103 -111 137 -181 60 -121
72 -180 72 -341 0 -155 -15 -222 -78 -344 -55 -106 -201 -249 -309 -303 -116
-57 -209 -76 -347 -69 -183 8 -325 72 -457 207 -133 135 -198 286 -206 480 -6
147 11 234 71 355 151 304 459 457 781 390z"/>
<path d="M56130 3860 l0 -340 -160 0 -160 0 0 -75 0 -75 160 0 160 0 0 -720 0
-720 75 0 75 0 0 720 0 720 155 0 155 0 0 75 0 75 -155 0 -155 0 0 340 0 340
-75 0 -75 0 0 -340z"/>
<path d="M37897 4011 c-70 -83 -127 -152 -127 -155 0 -4 32 -6 71 -6 l70 0
187 146 c103 81 191 150 197 155 5 5 -50 9 -131 9 l-140 0 -127 -149z"/>
<path d="M30553 4060 c-42 -25 -63 -68 -63 -127 0 -90 55 -143 149 -143 55 0
99 28 126 81 32 60 13 133 -45 183 -40 33 -118 36 -167 6z"/>
<path d="M36580 4042 c-66 -66 -64 -160 5 -221 30 -26 44 -31 86 -31 94 0 149
53 149 143 0 94 -53 147 -149 147 -49 0 -57 -3 -91 -38z"/>
<path d="M26517 3660 c-126 -16 -254 -63 -357 -133 -66 -45 -186 -163 -236
-234 -179 -249 -211 -620 -79 -900 112 -239 321 -419 564 -485 108 -30 333
-30 442 0 155 42 309 139 417 263 l52 60 0 -150 0 -151 75 0 75 0 0 795 0 795
-75 0 -75 0 0 -101 0 -101 -42 49 c-162 186 -357 283 -598 296 -52 3 -126 2
-163 -3z m328 -194 c195 -67 351 -214 437 -414 l33 -77 0 -200 c0 -194 -1
-202 -26 -263 -45 -106 -91 -173 -174 -257 -139 -138 -263 -194 -451 -203
-216 -9 -367 49 -519 202 -136 138 -192 250 -216 432 -29 226 46 439 211 604
158 158 291 212 510 206 94 -2 130 -8 195 -30z"/>
<path d="M31757 3660 c-255 -31 -486 -185 -632 -420 -131 -210 -160 -526 -70
-783 76 -220 292 -442 505 -521 267 -98 571 -61 793 98 68 48 217 198 217 218
0 7 -35 26 -77 42 l-77 29 -29 -36 c-40 -51 -141 -129 -214 -166 -190 -97
-433 -94 -626 6 -86 45 -234 187 -285 275 -84 143 -117 325 -89 492 30 175
101 303 237 429 135 125 296 183 490 174 179 -7 325 -71 453 -199 l68 -69 75
28 c41 15 74 33 74 40 0 22 -162 183 -232 229 -165 110 -378 159 -581 134z"/>
<path d="M33535 3659 c-242 -32 -458 -171 -600 -383 -101 -152 -145 -304 -145
-501 0 -255 74 -444 245 -624 162 -171 340 -254 572 -268 268 -15 524 95 694
300 l49 58 0 -155 0 -156 75 0 75 0 0 795 0 795 -75 0 -75 0 0 -106 0 -106
-46 57 c-101 123 -275 234 -434 274 -93 23 -243 32 -335 20z m333 -192 c108
-38 177 -82 268 -172 87 -87 149 -181 186 -285 20 -58 23 -83 23 -235 0 -160
-2 -174 -27 -243 -41 -112 -84 -178 -183 -278 -104 -104 -203 -161 -331 -190
-110 -24 -273 -16 -372 19 -224 78 -404 275 -463 505 -26 103 -26 262 1 368
64 253 262 457 512 524 106 29 284 23 386 -13z"/>
<path d="M35485 3659 c-184 -24 -325 -93 -468 -229 -117 -110 -204 -251 -247
-401 -31 -107 -39 -325 -16 -440 67 -328 327 -606 638 -683 218 -54 489 -12
658 100 117 78 273 235 253 255 -4 4 -39 19 -77 33 l-68 26 -84 -79 c-150
-142 -301 -198 -508 -188 -160 7 -261 46 -393 149 -108 85 -191 204 -240 343
-25 74 -27 92 -27 230 0 138 2 156 27 230 104 297 371 495 666 495 190 -1 336
-59 475 -191 l84 -79 69 25 c37 14 72 30 76 34 12 12 -83 123 -161 187 -81 67
-220 137 -322 163 -93 23 -243 32 -335 20z"/>
<path d="M37837 3660 c-344 -42 -643 -312 -729 -656 -26 -106 -31 -330 -9
-429 49 -223 197 -434 392 -562 272 -178 659 -174 926 8 70 47 178 154 229
226 55 76 116 206 140 298 15 55 19 105 18 235 0 150 -3 173 -27 253 -79 259
-265 471 -500 569 -122 52 -301 75 -440 58z m277 -180 c255 -65 469 -293 522
-555 23 -112 15 -273 -19 -378 -50 -156 -176 -317 -312 -399 -198 -120 -458
-131 -663 -28 -142 72 -252 182 -323 325 -51 102 -68 167 -75 285 -15 227 66
425 240 588 89 82 202 144 306 166 97 21 233 20 324 -4z"/>
<path d="M44230 3660 c-286 -35 -533 -212 -665 -475 -73 -144 -89 -220 -89
-415 0 -150 3 -173 27 -253 52 -168 130 -292 260 -413 172 -159 389 -235 628
-220 167 10 320 65 446 160 66 50 223 212 223 230 0 6 -35 24 -77 39 l-77 27
-69 -70 c-149 -152 -304 -220 -502 -220 -213 0 -406 93 -539 258 -112 140
-156 256 -164 430 l-5 112 772 0 771 0 0 44 c0 111 -45 262 -111 373 -78 130
-250 276 -394 336 -121 50 -303 74 -435 57z m274 -180 c202 -51 388 -214 473
-414 l21 -51 -660 -3 c-364 -1 -663 0 -666 3 -8 8 29 87 73 155 100 155 250
266 419 310 98 26 240 26 340 0z"/>
<path d="M49367 3659 c-252 -29 -486 -184 -632 -419 -129 -206 -159 -517 -76
-766 78 -233 290 -456 511 -538 258 -95 561 -62 777 85 70 47 178 154 229 226
54 75 116 206 139 293 22 88 31 278 16 379 -30 202 -122 375 -277 520 -139
129 -291 200 -476 220 -106 12 -112 12 -211 0z m277 -179 c199 -51 364 -188
462 -385 60 -121 77 -208 71 -355 -8 -196 -68 -338 -202 -475 -135 -139 -275
-204 -461 -212 -137 -7 -232 12 -342 67 -233 118 -383 347 -399 610 -13 228
68 426 241 588 89 82 202 144 306 166 97 21 233 20 324 -4z"/>
<path d="M54857 3659 c-259 -30 -491 -186 -637 -428 -141 -236 -158 -577 -42
-833 91 -202 288 -390 482 -462 267 -99 571 -61 794 98 66 47 216 199 216 219
0 7 -35 25 -77 40 l-78 28 -33 -40 c-42 -50 -140 -125 -215 -163 -187 -94
-429 -91 -620 9 -86 45 -234 187 -285 275 -107 181 -129 416 -58 618 37 108
82 176 181 276 74 74 107 99 175 133 240 118 518 89 732 -75 31 -24 72 -62 90
-85 l35 -41 76 28 c46 17 77 34 77 43 0 7 -46 59 -103 115 -156 154 -297 223
-499 245 -106 12 -112 12 -211 0z"/>
<path d="M57517 3660 c-232 -29 -446 -161 -593 -367 -179 -248 -211 -621 -79
-900 112 -239 321 -419 564 -485 108 -30 333 -30 442 0 271 73 512 304 597
572 32 98 42 172 42 296 0 252 -74 445 -239 617 -126 132 -247 207 -401 246
-91 23 -240 32 -333 21z m277 -180 c204 -52 373 -192 466 -385 53 -110 70
-190 70 -322 0 -211 -64 -367 -210 -513 -143 -143 -266 -199 -456 -208 -216
-9 -367 49 -519 202 -136 138 -192 250 -216 432 -33 264 86 532 306 689 162
116 367 154 559 105z"/>
<path d="M63483 3659 c-182 -22 -333 -99 -479 -244 -111 -111 -167 -195 -213
-321 -44 -120 -54 -201 -49 -365 5 -121 10 -158 33 -229 49 -152 98 -232 214
-354 164 -169 333 -248 566 -262 278 -17 526 93 716 319 32 39 59 73 59 76 0
3 -35 18 -78 34 l-79 27 -84 -82 c-95 -93 -162 -137 -271 -176 -67 -24 -86
-27 -218 -27 -132 0 -151 3 -218 27 -110 40 -178 84 -272 178 -92 91 -152 190
-184 301 -21 72 -37 208 -29 253 l6 36 769 0 770 0 -7 73 c-22 225 -125 415
-300 556 -179 144 -416 210 -652 180z m335 -192 c139 -48 264 -143 352 -268
46 -66 98 -175 88 -184 -3 -3 -303 -4 -666 -3 l-662 3 30 64 c62 130 159 243
275 316 69 45 107 61 199 86 103 28 282 21 384 -14z"/>
<path d="M68840 3660 c-286 -35 -533 -212 -665 -475 -72 -143 -88 -220 -89
-415 0 -151 3 -173 27 -253 52 -168 130 -292 260 -413 172 -159 389 -235 628
-220 228 14 416 105 574 279 l65 71 0 -152 0 -152 75 0 75 0 0 795 0 795 -75
0 -75 0 0 -102 0 -102 -71 77 c-77 83 -199 170 -294 210 -121 50 -303 74 -435
57z m274 -180 c126 -32 208 -81 316 -190 104 -103 151 -179 189 -304 17 -55
21 -94 21 -208 0 -164 -8 -203 -65 -323 -120 -250 -361 -405 -630 -405 -255 0
-485 137 -618 370 -77 134 -106 333 -73 500 51 264 264 493 518 560 100 26
241 26 342 0z"/>
<path d="M72805 3664 c-237 -24 -442 -137 -594 -328 -117 -147 -179 -313 -188
-507 -15 -296 78 -529 290 -725 181 -167 419 -245 665 -217 196 22 348 94 494
232 77 73 147 157 137 165 -2 1 -37 15 -78 30 l-74 27 -76 -76 c-88 -87 -111
-104 -205 -150 -102 -50 -196 -68 -325 -63 -184 8 -324 71 -457 203 -136 136
-202 287 -211 483 l-6 112 772 0 771 0 0 45 c0 64 -27 187 -57 262 -93 233
-330 432 -578 486 -76 17 -216 27 -280 21z m230 -179 c39 -8 108 -33 155 -56
68 -34 102 -60 176 -133 77 -76 99 -106 138 -186 l47 -95 -662 -3 c-364 -1
-664 0 -667 3 -8 8 29 87 73 155 164 255 449 376 740 315z"/>
<path d="M75373 3659 c-181 -22 -332 -99 -479 -244 -119 -117 -178 -211 -226
-355 -28 -85 -31 -111 -36 -246 -3 -117 -1 -170 13 -235 54 -268 245 -507 500
-625 238 -110 555 -93 776 42 80 48 170 125 219 186 l40 51 0 -152 0 -151 80
0 80 0 0 795 0 795 -80 0 -80 0 0 -101 0 -102 -42 53 c-97 119 -274 230 -428
269 -93 23 -241 32 -337 20z m335 -192 c109 -38 177 -82 272 -177 63 -63 96
-106 127 -165 65 -126 73 -165 73 -357 0 -160 -1 -171 -29 -248 -73 -199 -240
-364 -443 -438 -67 -24 -86 -27 -218 -27 -132 0 -151 3 -218 27 -206 75 -375
244 -444 444 -67 195 -53 410 38 584 97 185 261 318 454 370 107 29 284 23
388 -13z"/>
<path d="M39583 3610 c-96 -18 -189 -63 -280 -137 l-43 -34 0 40 0 41 -80 0
-80 0 0 -795 0 -795 80 0 80 0 0 624 0 624 41 61 c142 213 403 282 622 163
101 -55 210 -199 236 -313 7 -27 11 -262 11 -601 l0 -558 75 0 75 0 0 573 c0
464 -3 585 -15 642 -44 210 -209 388 -415 449 -66 20 -235 29 -307 16z"/>
<path d="M59095 3597 c-152 -51 -254 -185 -263 -347 -11 -195 66 -300 338
-464 242 -146 319 -248 308 -407 -9 -117 -83 -225 -186 -272 -65 -30 -179 -30
-244 0 -95 43 -173 150 -185 254 -3 27 -10 49 -15 49 -5 0 -39 -7 -75 -17
l-66 -16 7 -59 c14 -135 127 -287 262 -350 66 -32 74 -33 194 -33 120 0 128 1
193 32 160 76 267 248 267 430 0 194 -90 338 -289 463 -306 192 -345 229 -358
338 -7 65 12 126 54 173 51 56 100 79 170 79 103 0 177 -65 207 -180 16 -63
21 -64 100 -30 l49 22 -6 49 c-13 107 -92 216 -195 266 -45 22 -72 28 -141 30
-52 2 -102 -2 -126 -10z"/>
<path d="M30233 3520 c-105 -47 -222 -149 -282 -245 l-31 -50 0 148 0 147 -80
0 -80 0 0 -795 0 -795 80 0 79 0 3 513 3 514 42 84 c88 176 224 299 381 345 9
3 2 23 -24 71 -20 38 -40 71 -43 75 -3 4 -25 -1 -48 -12z"/>
<path d="M48342 3506 c-125 -68 -204 -143 -264 -250 l-28 -51 0 158 0 157 -75
0 -75 0 0 -795 0 -795 74 0 75 0 3 498 c3 487 3 498 25 556 36 94 82 163 168
251 78 80 180 145 227 145 10 0 18 5 18 11 0 13 -73 149 -80 149 -3 0 -33 -16
-68 -34z"/>
<path d="M74350 3505 c-114 -61 -206 -148 -260 -247 l-30 -53 0 158 0 157 -75
0 -75 0 0 -795 0 -795 74 0 75 0 3 498 c3 487 3 498 25 556 36 95 82 164 168
251 78 79 181 145 227 145 10 0 18 5 18 11 0 13 -73 149 -80 149 -3 0 -34 -16
-70 -35z"/>
<path d="M52600 3021 c0 -312 4 -540 11 -588 28 -201 149 -378 317 -462 80
-40 186 -61 311 -61 201 0 318 45 441 169 87 87 131 164 160 277 19 72 20 112
20 626 l0 548 -75 0 -75 0 0 -527 c0 -320 -4 -545 -11 -572 -26 -114 -123
-243 -230 -308 -184 -110 -418 -74 -574 87 -77 81 -120 165 -135 265 -5 39
-10 286 -10 563 l0 492 -75 0 -75 0 0 -509z"/>
<path d="M30560 2725 l0 -795 75 0 75 0 0 795 0 795 -75 0 -75 0 0 -795z"/>
<path d="M36600 2725 l0 -795 75 0 75 0 0 795 0 795 -75 0 -75 0 0 -795z"/>
<path d="M76585 2180 c-61 -40 -82 -126 -48 -197 22 -48 66 -73 128 -73 62 0
106 25 128 73 34 71 12 162 -47 198 -42 26 -121 25 -161 -1z"/>
</g>
</svg>
